<svg width="38" height="34" viewBox="0 0 38 34" fill="none" xmlns="http://www.w3.org/2000/svg">
<path d="M21.24 17.14V8.86H22.14V17.14H21.24ZM17.44 13.44V12.58H25.94V13.44H17.44Z" fill="black"/>
<path d="M12.909 32C13.6622 32 14.2727 31.3894 14.2727 30.6363C14.2727 29.8832 13.6622 29.2727 12.909 29.2727C12.1559 29.2727 11.5454 29.8832 11.5454 30.6363C11.5454 31.3894 12.1559 32 12.909 32Z" stroke="#D84040" stroke-width="3.5" stroke-linecap="round" stroke-linejoin="round"/>
<path d="M31.9999 32C32.753 32 33.3635 31.3894 33.3635 30.6363C33.3635 29.8832 32.753 29.2727 31.9999 29.2727C31.2468 29.2727 30.6362 29.8832 30.6362 30.6363C30.6362 31.3894 31.2468 32 31.9999 32Z" stroke="#D84040" stroke-width="3.5" stroke-linecap="round" stroke-linejoin="round"/>
<path d="M2 2H7.45456L11.5455 25.1816H33.3637" stroke="#D84040" stroke-width="3.5" stroke-linecap="round" stroke-linejoin="round"/>
<path d="M11.5454 19.7271H32.8045C32.9622 19.7272 33.1151 19.6726 33.2371 19.5727C33.359 19.4728 33.4426 19.3337 33.4736 19.1791L35.9281 6.90644C35.9479 6.80748 35.9455 6.70535 35.9211 6.60744C35.8966 6.50952 35.8507 6.41825 35.7867 6.34022C35.7227 6.26219 35.6422 6.19934 35.5509 6.15622C35.4597 6.11309 35.36 6.09075 35.2591 6.09082H8.81812" stroke="#D84040" stroke-width="3.5" stroke-linecap="round" stroke-linejoin="round"/>
</svg>
